<?xml version="1.0" encoding="UTF-8"?>
<svg id="Calque_1" data-name="Calque 1" xmlns="http://www.w3.org/2000/svg" viewBox="0 0 254.78 119.96">
  <defs>
    <style>
      .cls-1 {
        fill: none;
      }

      .cls-2 {
        fill: #fff;
      }
    </style>
  </defs>
  <polygon class="cls-1" points="154.08 80.94 146.73 95.81 146.73 80.94 142.07 80.94 142.07 112.53 146.73 112.53 146.73 97.73 154.08 112.53 159.04 112.53 151.2 96.74 159.04 80.94 154.08 80.94"/>
  <path class="cls-1" d="M157.9,53.71v-3.9c0-4.22-2.62-6.33-7.86-6.33s-7.86,2.11-7.86,6.33v19.95c0,4.24,2.62,6.35,7.86,6.35,5.24-.01,7.86-2.13,7.86-6.35v-3.9h-4.66v3.9c0,1.8-1.07,2.69-3.2,2.69s-3.21-.9-3.21-2.69v-19.95c0-1.8,1.06-2.69,3.19-2.69h.04c2.12.01,3.19.91,3.19,2.69v3.9h4.66Z"/>
  <rect class="cls-1" x="183.54" y="80.94" width="4.66" height="31.59"/>
  <polygon class="cls-1" points="173.99 103.63 167.25 80.94 162.47 80.94 162.47 112.53 166.91 112.53 166.91 90.4 173.42 112.53 178.2 112.53 178.2 80.95 173.99 81 173.99 103.63"/>
  <path class="cls-1" d="M173.98,43.99h-7.04l-4.09,20.66-1.82,10.94h4.7l1.17-6.91h7.12l1.15,6.91h4.74l-1.85-11-4.07-20.59ZM167.49,65.01l2.96-17.85,2.96,17.85h-5.93Z"/>
  <polygon class="cls-1" points="247.46 34.99 238.05 34.99 238.05 24.67 246.15 24.67 246.15 21.01 238.05 21.01 238.05 10.68 247.46 10.68 247.46 7.04 233.39 7.04 233.39 38.63 247.46 38.63 247.46 34.99"/>
  <rect class="cls-1" x="162.04" y="7.04" width="4.66" height="31.59"/>
  <path class="cls-1" d="M196.09,24.44l1.82-.19,5.34,14.38h5.14l-6.55-14.96c3.21-.94,4.82-2.73,4.82-5.37v-4.89c0-4.23-2.41-6.36-7.24-6.37h-7.98v31.59h4.66v-14.19ZM196.09,10.68h2.72c2.12,0,3.18.91,3.18,2.73v4.89c0,1.26-.67,2.11-1.99,2.55-.39.11-1.04.16-1.94.16h-1.97v-10.33Z"/>
  <polygon class="cls-1" points="186.79 34.99 177.37 34.99 177.37 24.67 185.48 24.67 185.48 21.01 177.37 21.01 177.37 10.68 186.79 10.68 186.79 7.04 172.72 7.04 172.72 38.63 186.79 38.63 186.79 34.99"/>
  <path class="cls-1" d="M146.62,24.67h1.59c1.65,0,2.9-.11,3.75-.34,3.48-.9,5.22-2.91,5.22-6.03v-4.89c0-4.23-2.41-6.36-7.24-6.37h-7.98v31.59h4.66v-13.97ZM146.62,10.68h2.72c2.12,0,3.18.91,3.18,2.73v4.89c0,1.26-.67,2.11-1.99,2.55-.39.11-1.04.16-1.94.16h-1.98v-10.33Z"/>
  <path class="cls-1" d="M227.34,18.3v-4.89c0-4.23-2.41-6.36-7.24-6.37h-7.98v31.59h4.66v-14.19l1.81-.19,5.34,14.38h5.14l-6.55-14.96c3.21-.94,4.82-2.73,4.82-5.37ZM220.68,20.85c-.39.11-1.04.16-1.94.16h-1.97v-10.33h2.72c2.12,0,3.18.91,3.18,2.73v4.89c0,1.26-.67,2.11-2,2.55Z"/>
  <path class="cls-1" d="M239.79,80.43c-5.24,0-7.86,2.11-7.86,6.33v3.06c0,2.83,1.75,5.25,5.26,7.25,3.87,2.2,5.8,4.17,5.8,5.92v3.72c0,1.8-1.06,2.69-3.19,2.69s-3.23-.9-3.23-2.69v-3.9h-4.66v3.9c0,4.22,2.63,6.34,7.88,6.35,5.23,0,7.84-2.12,7.84-6.35v-4.12c0-2.76-1.76-5.14-5.26-7.14-3.87-2.2-5.81-4.11-5.81-5.72v-2.97c0-1.8,1.06-2.69,3.19-2.69h.04c2.12.01,3.19.91,3.19,2.69v3.9h4.66v-3.9c0-4.22-2.62-6.33-7.86-6.33Z"/>
  <rect class="cls-1" x="221.34" y="43.99" width="4.66" height="31.59"/>
  <polygon class="cls-1" points="235.99 53.45 242.5 75.58 247.28 75.58 247.28 44.01 243.07 44.05 243.07 66.68 236.33 43.99 231.56 43.99 231.56 75.58 235.99 75.58 235.99 53.45"/>
  <polygon class="cls-1" points="214.03 112.53 228.1 112.53 228.1 108.89 218.68 108.89 218.68 98.56 226.79 98.56 226.79 94.91 218.68 94.91 218.68 84.58 228.1 84.58 228.1 80.94 214.03 80.94 214.03 112.53"/>
  <polygon class="cls-1" points="217.61 43.99 201.88 43.99 201.88 47.63 207.43 47.63 207.43 75.58 212.08 75.58 212.08 47.63 217.61 47.63 217.61 43.99"/>
  <polygon class="cls-1" points="201.14 109.36 196.42 80.94 191.73 80.94 193.54 91.91 197.63 112.53 204.67 112.53 208.74 91.94 210.6 80.94 205.86 80.94 201.14 109.36"/>
  <path class="cls-2" d="M0,0v119.96h119.96V0H0ZM104.96,104.96H14.99V14.99h89.97v89.97Z"/>
  <polygon class="cls-2" points="89.97 89.97 89.97 74.97 44.98 74.97 44.98 44.98 89.97 44.98 89.97 29.99 29.99 29.99 29.99 89.97 89.97 89.97"/>
  <g>
    <path class="cls-2" d="M150.54,20.85c1.33-.44,1.99-1.29,1.99-2.55v-4.89c0-1.82-1.06-2.73-3.18-2.73h-2.72v10.33h1.98c.9,0,1.55-.05,1.94-.16Z"/>
    <polygon class="cls-2" points="167.49 65.01 173.41 65.01 170.45 47.16 167.49 65.01"/>
    <path class="cls-2" d="M222.68,13.41c0-1.82-1.06-2.73-3.18-2.73h-2.72v10.33h1.97c.9,0,1.55-.05,1.94-.16,1.33-.44,2-1.29,2-2.55v-4.89Z"/>
    <path class="cls-2" d="M200.01,20.85c1.33-.44,1.99-1.29,1.99-2.55v-4.89c0-1.82-1.06-2.73-3.18-2.73h-2.72v10.33h1.97c.9,0,1.55-.05,1.94-.16Z"/>
    <path class="cls-2" d="M134.82,0v119.96h119.96V0h-119.96ZM233.39,7.04h14.07v3.64h-9.42v10.33h8.11v3.66h-8.11v10.33h9.42v3.64h-14.07V7.04ZM191.44,7.04h7.98c4.82.01,7.24,2.13,7.24,6.37v4.89c0,2.64-1.61,4.43-4.82,5.37l6.55,14.96h-5.14l-5.34-14.38-1.82.19v14.19h-4.66V7.04ZM172.72,7.04h14.07v3.64h-9.42v10.33h8.11v3.66h-8.11v10.33h9.42v3.64h-14.07V7.04ZM162.04,7.04h4.66v31.59h-4.66V7.04ZM150.05,47.12h-.04c-2.12,0-3.19.9-3.19,2.69v19.95c0,1.8,1.07,2.69,3.21,2.69s3.2-.9,3.2-2.69v-3.9h4.66v3.9c0,4.22-2.62,6.34-7.86,6.35-5.24,0-7.86-2.12-7.86-6.35v-19.95c0-4.22,2.62-6.33,7.86-6.33s7.86,2.11,7.86,6.33v3.9h-4.66v-3.9c0-1.79-1.06-2.68-3.19-2.69ZM141.97,7.04h7.98c4.82.01,7.24,2.13,7.24,6.37v4.89c0,3.12-1.74,5.13-5.22,6.03-.85.22-2.1.34-3.75.34h-1.59v13.97h-4.66V7.04ZM159.04,112.53h-4.96l-7.36-14.8v14.8h-4.66v-31.59h4.66v14.87l7.36-14.87h4.96l-7.84,15.8,7.84,15.8ZM178.2,112.53h-4.78l-6.51-22.13v22.13h-4.43v-31.59h4.78l6.74,22.69v-22.63l4.21-.05v31.58ZM175.17,75.58l-1.15-6.91h-7.12l-1.17,6.91h-4.7l1.82-10.94,4.09-20.66h7.04l4.07,20.59,1.85,11h-4.74ZM188.2,112.53h-4.66v-31.59h4.66v31.59ZM182.97,69.73v-3.9h4.66v3.9c0,1.8,1.08,2.69,3.23,2.69s3.19-.9,3.19-2.69v-3.72c0-1.74-1.93-3.71-5.8-5.92-3.51-2-5.26-4.42-5.26-7.25v-3.06c0-4.22,2.62-6.33,7.86-6.33s7.86,2.11,7.86,6.33v3.9h-4.66v-3.9c0-1.79-1.06-2.68-3.19-2.69h-.04c-2.12,0-3.19.9-3.19,2.69v2.97c0,1.61,1.93,3.52,5.81,5.72,3.51,2,5.26,4.38,5.26,7.14v4.12c0,4.23-2.62,6.35-7.84,6.35-5.25-.01-7.88-2.13-7.88-6.35ZM208.74,91.94l-4.07,20.59h-7.04l-4.09-20.62-1.82-10.97h4.7l4.72,28.42,4.72-28.42h4.74l-1.85,11ZM212.08,75.58h-4.66v-27.95h-5.55v-3.64h15.73v3.64h-5.53v27.95ZM228.1,84.58h-9.42v10.33h8.11v3.66h-8.11v10.33h9.42v3.64h-14.07v-31.59h14.07v3.64ZM221.34,75.58v-31.59h4.66v31.59h-4.66ZM223.93,38.63l-5.34-14.38-1.81.19v14.19h-4.66V7.04h7.98c4.83.01,7.24,2.13,7.24,6.37v4.89c0,2.64-1.61,4.43-4.82,5.37l6.55,14.96h-5.14ZM231.56,43.99h4.78l6.73,22.69v-22.63l4.21-.05v31.58h-4.78l-6.51-22.13v22.13h-4.43v-31.59ZM247.66,90.66h-4.66v-3.9c0-1.79-1.06-2.68-3.19-2.69h-.04c-2.12,0-3.19.9-3.19,2.69v2.97c0,1.61,1.93,3.52,5.81,5.72,3.51,2,5.26,4.38,5.26,7.14v4.12c0,4.23-2.62,6.35-7.84,6.35-5.25-.01-7.88-2.13-7.88-6.35v-3.9h4.66v3.9c0,1.8,1.08,2.69,3.23,2.69s3.19-.9,3.19-2.69v-3.72c0-1.74-1.93-3.71-5.8-5.92-3.51-2-5.26-4.42-5.26-7.25v-3.06c0-4.22,2.62-6.33,7.86-6.33s7.86,2.11,7.86,6.33v3.9Z"/>
  </g>
</svg>